<svg width="1920" height="392" viewBox="0 0 1920 392" fill="none" xmlns="http://www.w3.org/2000/svg">
<rect width="1920" height="392" fill="#D8D8D8"/>
<mask id="mask0" mask-type="alpha" maskUnits="userSpaceOnUse" x="0" y="0" width="1920" height="392">
<rect width="1920" height="392" fill="#D8D8D8"/>
</mask>
<g mask="url(#mask0)">
<path d="M1684.11 173.574L1732.79 164.94L1715.93 211.413L1684.11 173.574Z" fill="#C9C9C9"/>
<path d="M1814.2 220.773L1862.88 212.139L1846.02 258.612L1814.2 220.773Z" fill="#C9C9C9"/>
<path d="M1554.02 126.374L1602.69 117.739L1585.83 164.213L1554.02 126.374Z" fill="#C9C9C9"/>
<path d="M1879.25 244.373L1927.92 235.739L1911.06 282.212L1879.25 244.373Z" fill="#C9C9C9"/>
<path d="M1619.06 149.973L1667.74 141.339L1650.88 187.812L1619.06 149.973Z" fill="#C9C9C9"/>
<path d="M1749.15 197.174L1797.83 188.539L1780.97 235.012L1749.15 197.174Z" fill="#C9C9C9"/>
<path d="M1488.97 102.775L1537.65 94.1408L1520.79 140.614L1488.97 102.775Z" fill="#C9C9C9"/>
<path d="M1614.49 365.459L1663.17 356.824L1646.31 403.298L1614.49 365.459Z" fill="#C9C9C9"/>
<path d="M1744.58 412.658L1793.26 404.024L1776.4 450.497L1744.58 412.658Z" fill="#C9C9C9"/>
<path d="M1484.4 318.259L1533.08 309.624L1516.21 356.097L1484.4 318.259Z" fill="#C9C9C9"/>
<path d="M1549.44 341.858L1598.12 333.224L1581.26 379.697L1549.44 341.858Z" fill="#C9C9C9"/>
<path d="M1679.53 389.057L1728.21 380.423L1711.35 426.896L1679.53 389.057Z" fill="#C9C9C9"/>
<path d="M1419.35 294.659L1468.03 286.025L1451.17 332.498L1419.35 294.659Z" fill="#C9C9C9"/>
<path d="M1753.73 -18.3108L1802.41 -26.9451L1785.54 19.5281L1753.73 -18.3108Z" fill="#C9C9C9"/>
<path d="M1883.82 28.8884L1932.5 20.2541L1915.63 66.7273L1883.82 28.8884Z" fill="#C9C9C9"/>
<path d="M1818.77 5.28881L1867.45 -3.34548L1850.59 43.1277L1818.77 5.28881Z" fill="#C9C9C9"/>
<path d="M1449.59 414.201L1498.27 405.567L1481.4 452.04L1449.59 414.201Z" fill="#C9C9C9"/>
<path d="M1384.54 390.601L1433.22 381.967L1416.36 428.44L1384.54 390.601Z" fill="#C9C9C9"/>
<path d="M1718.92 77.6316L1767.6 68.9973L1750.73 115.47L1718.92 77.6316Z" fill="#C9C9C9"/>
<path d="M1849.01 124.831L1897.69 116.197L1880.83 162.67L1849.01 124.831Z" fill="#C9C9C9"/>
<path d="M1588.83 30.4324L1637.5 21.7981L1620.64 68.2713L1588.83 30.4324Z" fill="#C9C9C9"/>
<path d="M1914.05 148.43L1962.73 139.796L1945.87 186.269L1914.05 148.43Z" fill="#C9C9C9"/>
<path d="M1653.87 54.032L1702.55 45.3977L1685.69 91.8709L1653.87 54.032Z" fill="#C9C9C9"/>
<path d="M1783.96 101.23L1832.64 92.5959L1815.78 139.069L1783.96 101.23Z" fill="#C9C9C9"/>
<path d="M1523.78 6.83177L1572.46 -1.80251L1555.6 44.6707L1523.78 6.83177Z" fill="#C9C9C9"/>
<path d="M1909.48 363.915L1958.16 355.28L1941.3 401.754L1909.48 363.915Z" fill="#C9C9C9"/>
<path d="M1649.3 269.516L1697.98 260.882L1681.12 307.355L1649.3 269.516Z" fill="#C9C9C9"/>
<path d="M1779.39 316.716L1828.07 308.081L1811.21 354.554L1779.39 316.716Z" fill="#C9C9C9"/>
<path d="M1519.21 222.317L1567.89 213.683L1551.02 260.156L1519.21 222.317Z" fill="#C9C9C9"/>
<path d="M1844.44 340.315L1893.11 331.681L1876.25 378.154L1844.44 340.315Z" fill="#C9C9C9"/>
<path d="M1584.25 245.916L1632.93 237.281L1616.07 283.755L1584.25 245.916Z" fill="#C9C9C9"/>
<path d="M1714.34 293.116L1763.02 284.482L1746.16 330.955L1714.34 293.116Z" fill="#C9C9C9"/>
<path d="M1454.16 198.717L1502.84 190.082L1485.98 236.555L1454.16 198.717Z" fill="#C9C9C9"/>
<path d="M1935.4 292.419L1967.51 330.116L1918.22 338.859L1935.4 292.419Z" fill="#C9C9C9"/>
<path d="M1674.94 198.235L1706.69 235.995L1658.11 244.611L1674.94 198.235Z" fill="#C9C9C9"/>
<path d="M1805.04 245.776L1836.79 283.536L1788.21 292.153L1805.04 245.776Z" fill="#C9C9C9"/>
<path d="M1544.84 150.694L1576.7 189.073L1528.12 197.689L1544.84 150.694Z" fill="#C9C9C9"/>
<path d="M1870.43 269.062L1902.18 306.821L1853.6 315.438L1870.43 269.062Z" fill="#C9C9C9"/>
<path d="M1610.38 174.804L1642.13 212.564L1593.55 221.18L1610.38 174.804Z" fill="#C9C9C9"/>
<path d="M1740.33 221.521L1772.19 259.899L1723.61 268.515L1740.33 221.521Z" fill="#C9C9C9"/>
<path d="M1480.28 127.263L1512.03 165.023L1463.45 173.639L1480.28 127.263Z" fill="#C9C9C9"/>
<path d="M1605.59 390.058L1637.7 427.754L1588.41 436.497L1605.59 390.058Z" fill="#C9C9C9"/>
<path d="M1475.64 343.342L1507.74 381.038L1458.45 389.781L1475.64 343.342Z" fill="#C9C9C9"/>
<path d="M1540.61 366.7L1572.36 404.46L1523.79 413.076L1540.61 366.7Z" fill="#C9C9C9"/>
<path d="M1410.52 319.159L1442.27 356.919L1393.69 365.535L1410.52 319.159Z" fill="#C9C9C9"/>
<path d="M1744.7 6.33888L1776.45 44.0988L1727.88 52.715L1744.7 6.33888Z" fill="#C9C9C9"/>
<path d="M1874.8 53.8799L1906.55 91.6398L1857.97 100.256L1874.8 53.8799Z" fill="#C9C9C9"/>
<path d="M1614.6 -41.2021L1646.46 -2.82361L1597.89 5.79264L1614.6 -41.2021Z" fill="#C9C9C9"/>
<path d="M1940.19 77.1651L1971.94 114.925L1923.36 123.541L1940.19 77.1651Z" fill="#C9C9C9"/>
<path d="M1680.14 -17.0918L1711.89 20.6681L1663.31 29.2843L1680.14 -17.0918Z" fill="#C9C9C9"/>
<path d="M1810.09 29.624L1841.95 68.0026L1793.37 76.6188L1810.09 29.624Z" fill="#C9C9C9"/>
<path d="M1709.89 102.7L1741.64 140.46L1693.07 149.076L1709.89 102.7Z" fill="#C9C9C9"/>
<path d="M1839.85 149.416L1871.6 187.176L1823.02 195.792L1839.85 149.416Z" fill="#C9C9C9"/>
<path d="M1579.79 55.1582L1611.54 92.9181L1562.97 101.534L1579.79 55.1582Z" fill="#C9C9C9"/>
<path d="M1905.24 172.701L1937.1 211.08L1888.52 219.696L1905.24 172.701Z" fill="#C9C9C9"/>
<path d="M1645.18 78.4434L1676.93 116.203L1628.36 124.819L1645.18 78.4434Z" fill="#C9C9C9"/>
<path d="M1775.28 125.984L1807.03 163.744L1758.46 172.361L1775.28 125.984Z" fill="#C9C9C9"/>
<path d="M1515.23 31.7276L1546.98 69.4874L1498.4 78.1037L1515.23 31.7276Z" fill="#C9C9C9"/>
<path d="M1900.6 388.779L1932.7 426.476L1883.41 435.219L1900.6 388.779Z" fill="#C9C9C9"/>
<path d="M1640.13 294.596L1671.88 332.356L1623.31 340.972L1640.13 294.596Z" fill="#C9C9C9"/>
<path d="M1770.5 341.238L1802.6 378.935L1753.31 387.678L1770.5 341.238Z" fill="#C9C9C9"/>
<path d="M1510.03 247.055L1541.78 284.815L1493.21 293.431L1510.03 247.055Z" fill="#C9C9C9"/>
<path d="M1835.47 364.597L1867.33 402.975L1818.76 411.591L1835.47 364.597Z" fill="#C9C9C9"/>
<path d="M1575.42 270.34L1607.17 308.1L1558.6 316.716L1575.42 270.34Z" fill="#C9C9C9"/>
<path d="M1705.52 317.881L1737.27 355.641L1688.7 364.257L1705.52 317.881Z" fill="#C9C9C9"/>
<path d="M1445.47 223.623L1477.22 261.383L1428.64 269.999L1445.47 223.623Z" fill="#C9C9C9"/>
<path d="M1909.61 -42.4805L1941.36 -4.72058L1892.78 3.89567L1909.61 -42.4805Z" fill="#C9C9C9"/>
</g>
</svg>
