<svg width="46" height="44" viewBox="0 0 46 44" fill="none" xmlns="http://www.w3.org/2000/svg">
<path d="M34.9908 22.3672C34.9908 27.0599 30.5139 29.0256 28.2755 29.4218V35.1355C29.7489 35.1355 29.4722 35.1355 31.3083 35.1355C33.1443 35.1355 33.6989 40.295 33.7272 41.825H13.8236C13.7556 38.6289 15.173 35.3338 15.9096 35.1355H19.0104V29.4218C15.6657 29.4218 11.955 24.7482 11.955 22.3672V20.5603V7.93805V7.24516V5.03906H34.9908C34.9908 10.7056 34.9908 17.6746 34.9908 22.3672ZM34.9908 22.3672V20.5603V7.93805V7.24516" stroke="#2A2A2A" stroke-width="3.55346"/>
<path d="M4.21803 11.5137H11.9553V21.1338C3.9663 18.4483 3.46837 13.6014 4.21803 11.5137Z" stroke="#2A2A2A" stroke-width="3.55346"/>
<path d="M43.2514 11.5137H34.9908V21.1338C43.5201 18.4483 44.0517 13.6014 43.2514 11.5137Z" stroke="#2A2A2A" stroke-width="3.55346"/>
</svg>
