<svg width="47" height="46" viewBox="0 0 47 46" fill="none" xmlns="http://www.w3.org/2000/svg">
<path d="M30.5144 35.9485L20.7816 43.2482C20.4744 43.4785 20.036 43.2594 20.036 42.8754V36.3213C20.036 36.0639 19.8288 35.8553 19.5715 35.8553H12.084C9.96348 35.8553 9.43335 34.0882 9.43335 33.2046V11.9993C9.43335 9.87877 11.2005 9.34863 12.084 9.34863H41.2414C43.3619 9.34863 43.892 11.1157 43.892 11.9993V33.2046C43.892 35.3252 42.1249 35.8553 41.2414 35.8553H30.794C30.6932 35.8553 30.5951 35.888 30.5144 35.9485Z" fill="#D8D8D8" stroke="#D8D8D8" stroke-width="4.44183"/>
<path d="M23.4074 29.7298L13.6745 37.0294C13.3673 37.2598 12.929 37.0406 12.929 36.6567V30.1025C12.929 29.8452 12.7218 29.6366 12.4644 29.6366H4.97696C2.85643 29.6366 2.32629 27.8695 2.32629 26.9859V5.78055C2.32629 3.66002 4.09341 3.12988 4.97696 3.12988H34.1343C36.2548 3.12988 36.785 4.89699 36.785 5.78055V26.9859C36.785 29.1064 35.0179 29.6366 34.1343 29.6366H23.687C23.5861 29.6366 23.488 29.6693 23.4074 29.7298Z" stroke="#2A2A2A" stroke-width="4.44183"/>
</svg>
