<svg width="114" height="45" viewBox="0 0 114 45" fill="none" xmlns="http://www.w3.org/2000/svg">
<g opacity="0.6">
<path d="M40.6984 44.9998H35.7417V26.6679L36.0818 44.9998H28.3067H24.1153H16.6803H11.8694V18.8482H18.5026H25.5124H33.8465H40.6984V26.299L73.534 26.4097L78.6 18.2949L78.8916 44.9998H40.6984Z" fill="#CDCDCD"/>
<path d="M49.6713 33.8605H57.6895C57.6409 32.8523 57.2764 32.0039 56.5961 31.3154C55.9401 30.6269 54.9682 30.2826 53.6804 30.2826C52.5141 30.2826 51.5665 30.6515 50.8376 31.3892C50.1087 32.1269 49.7199 32.9507 49.6713 33.8605ZM58.1633 38.5818L62.2088 39.799C61.7229 41.4711 60.7631 42.8482 59.3296 43.9302C57.9203 45.0121 56.1952 43.5243 54.0813 43.5243C51.5058 43.5243 49.2826 44.6802 47.4845 42.9343C45.6865 41.1638 44.7875 38.8031 44.7875 35.8523C44.7875 33.049 45.6622 30.7621 47.4116 28.9916C49.1611 27.1966 51.2264 26.299 53.6075 26.299C56.3774 26.299 58.5399 27.1351 60.095 28.8072C61.6743 30.4793 62.464 32.7785 62.464 35.7047C62.464 35.9015 62.4518 36.1228 62.4275 36.3687C62.4275 36.6146 62.4275 36.8113 62.4275 36.9588L62.3911 37.217H49.562C49.6106 38.3974 50.0722 39.381 50.9469 40.1679C51.8216 40.9547 52.8664 41.3482 54.0813 41.3482C56.1466 41.3482 57.5073 40.4261 58.1633 38.5818Z" fill="#CDCDCD"/>
<path d="M83.3745 18.2949H93.4803V27.2948H113.649V44.9998C113.649 44.9998 84.1909 45 83.5202 44.9998C82.8496 44.9997 78.8916 44.9998 78.8916 44.9998C78.7701 44.3851 78.7093 43.6843 78.7093 42.8974C78.2963 43.6597 77.6402 44.2744 76.7412 44.7416C75.8665 45.2088 75.1522 43.9302 73.9859 43.9302C71.4347 43.9302 69.0268 44.5449 67.3745 42.7498C65.7466 40.9302 64.9326 38.6433 64.9326 35.8892C64.9326 33.2088 65.7344 30.9588 67.3381 29.1392C68.966 27.3195 71.0313 26.4097 73.534 26.4097C76.1095 26.4097 77.7982 27.1597 78.6 28.6597V18.2949H83.3745ZM69.8164 35.8892C69.8164 37.4875 70.2295 38.7539 71.0556 39.6884C71.8817 40.5982 72.9508 41.0531 74.2629 41.0531C75.5507 41.0531 76.6076 40.5859 77.4337 39.6515C78.2598 38.717 78.6729 37.4506 78.6729 35.8523C78.6729 34.2785 78.2598 33.049 77.4337 32.1638C76.6076 31.2539 75.5507 30.799 74.2629 30.799C72.9751 30.799 71.906 31.2539 71.0556 32.1638C70.2295 33.0736 69.8164 34.3154 69.8164 35.8892Z" fill="#CDCDCD"/>
<path d="M93.4803 44.9998H88.633V26.8523L91.1157 26.9262L93.4803 44.9998Z" fill="#CDCDCD"/>
<path d="M104.756 41.8646C105.898 41.8646 106.834 41.5449 107.563 40.9056C108.316 40.2416 108.693 39.1597 108.693 37.6597V36.8482L104.647 37.4752C103.165 37.6966 102.424 38.4588 102.424 39.7621C102.424 40.3523 102.63 40.8564 103.043 41.2744C103.457 41.6679 104.028 41.8646 104.756 41.8646Z" fill="#CDCDCD"/>
</g>
</svg>
